# Original low-poly PSVR2-style controller placeholder
mtllib psvr2_sense_left.mtl
o psvr2_sense_left
usemtl shell
v -0.025 -0.020 -0.090
v  0.025 -0.020 -0.090
v  0.030  0.020 -0.020
v -0.030  0.020 -0.020
v -0.020 -0.030  0.055
v  0.020 -0.030  0.055
v  0.024  0.015  0.055
v -0.024  0.015  0.055
f 1 2 3 4
f 5 8 7 6
f 1 5 6 2
f 2 6 7 3
f 3 7 8 4
f 4 8 5 1
# tracking ring
v -0.070 0.000 -0.020
v -0.050 0.000 -0.055
v  0.000 0.000 -0.075
v  0.050 0.000 -0.055
v  0.070 0.000 -0.020
v  0.050 0.000  0.015
v  0.000 0.000  0.035
v -0.050 0.000  0.015
v -0.060 0.008 -0.020
v -0.043 0.008 -0.048
v  0.000 0.008 -0.064
v  0.043 0.008 -0.048
v  0.060 0.008 -0.020
v  0.043 0.008  0.008
v  0.000 0.008  0.024
v -0.043 0.008  0.008
f 9 10 18 17
f 10 11 19 18
f 11 12 20 19
f 12 13 21 20
f 13 14 22 21
f 14 15 23 22
f 15 16 24 23
f 16 9 17 24
